{"title":"Mr.Robot.S01E06.HDTV.480p.x264.AAC-VYTO [P2PDL]","uid":12172144,"size":157463677,"categoryP":"video","categoryS":"hd___tv_shows","magnet":"?xt=urn:btih:b570c31f440d7b2993bd58705c24399935f6d762&amp;dn=Mr.Robot.S01E06.HDTV.480p.x264.AAC-VYTO+%5BP2PDL%5D&amp;tr=udp%3A%2F%2Ftracker.openbittorrent.com%3A80&amp;tr=udp%3A%2F%2Fopen.demonii.com%3A1337&amp;tr=udp%3A%2F%2Ftracker.coppersurfer.tk%3A6969&amp;tr=udp%3A%2F%2Fexodus.desync.com%3A6969","seeders":1,"leechers":0,"uploader":"ValidusVyto","files":6,"time":1438241603,"description":"____    ____ ____    ____ .___________.  ______   \n     /   /      /   / |           | /  __    \n    /   /      /   /  `---|  |----`|  |  |  | \n        /     _    _/       |  |     |  |  |  | \n       /        |  |         |  |     |  `--'  | \n    __/         |__|         |__|      ______/  \n                                                  \nPresenting Small Encodes with quality for years!\n                                                                                                   \n                                                                                                   \n\nMr.Robot.S01E06.HDTV.480p.x264.AAC-VYTO\n\n\nGeneral\nFormat                         : MPEG-4\nFile size                      : 146 MiB\nDuration                       : 44mn 4s\nOverall bit rate               : 462 Kbps\n\nVideo\nFormat                         : AVC\nDuration                       : 44mn 4s\nBit rate                       : 427 Kbps\nWidth                          : 720 pixels\nHeight                         : 400 pixels\nDisplay aspect ratio           : 16:9\nFrame rate mode                : Constant\nFrame rate                     : 23.976 fps\nBit depth                      : 8 bits\nStream size                    : 135 MiB (92%)\nWriting library                : x264 core 146 r2538 121396c\n\nAudio\n\nFormat                         : AAC\nBit rate                       : 32.0 Kbps\nChannel(s)                     : 2 channels\nChannel positions              : Front: L R \nSampling rate                  : 48.0 KHz \nStream size                    : 10.1 MiB (7%)\n\n\n\nScreenshots:\n &lt;a href=&quot;\nhttp://someimage.com/qb1BZSm&quot; rel=&quot;nofollow&quot; target=&quot;_NEW&quot;&gt;\nhttp://someimage.com/qb1BZSm&lt;/a&gt; &lt;a href=&quot;\nhttp://someimage.com/oXnAaTT&quot; rel=&quot;nofollow&quot; target=&quot;_NEW&quot;&gt;\nhttp://someimage.com/oXnAaTT&lt;/a&gt; &lt;a href=&quot;\nhttp://someimage.com/3iVVc78&quot; rel=&quot;nofollow&quot; target=&quot;_NEW&quot;&gt;\nhttp://someimage.com/3iVVc78&lt;/a&gt; &lt;a href=&quot;\nhttp://someimage.com/A6P63qI&quot; rel=&quot;nofollow&quot; target=&quot;_NEW&quot;&gt;\nhttp://someimage.com/A6P63qI&lt;/a&gt; &lt;a href=&quot;\nhttp://someimage.com/VXdBDR1&quot; rel=&quot;nofollow&quot; target=&quot;_NEW&quot;&gt;\nhttp://someimage.com/VXdBDR1&lt;/a&gt; &lt;a href=&quot;\nhttp://someimage.com/WXrwkVE&quot; rel=&quot;nofollow&quot; target=&quot;_NEW&quot;&gt;\nhttp://someimage.com/WXrwkVE&lt;/a&gt; &lt;a href=&quot;\nhttp://someimage.com/mhTmau8&quot; rel=&quot;nofollow&quot; target=&quot;_NEW&quot;&gt;\nhttp://someimage.com/mhTmau8&lt;/a&gt; &lt;a href=&quot;\nhttp://someimage.com/BZMJx5P&quot; rel=&quot;nofollow&quot; target=&quot;_NEW&quot;&gt;\nhttp://someimage.com/BZMJx5P&lt;/a&gt; &lt;a href=&quot;\nhttp://someimage.com/QvB0oxf&quot; rel=&quot;nofollow&quot; target=&quot;_NEW&quot;&gt;\nhttp://someimage.com/QvB0oxf&lt;/a&gt; &lt;a href=&quot;\nhttp://someimage.com/UvUu49x&quot; rel=&quot;nofollow&quot; target=&quot;_NEW&quot;&gt;\nhttp://someimage.com/UvUu49x&lt;/a&gt; &lt;a href=&quot;\nhttp://someimage.com/t4njy0X&quot; rel=&quot;nofollow&quot; target=&quot;_NEW&quot;&gt;\nhttp://someimage.com/t4njy0X&lt;/a&gt; &lt;a href=&quot;\nhttp://someimage.com/cL0TYGe&quot; rel=&quot;nofollow&quot; target=&quot;_NEW&quot;&gt;\nhttp://someimage.com/cL0TYGe&lt;/a&gt;\n\n\n----------------------------------------------------------------------------------------------------\n\n\nEncoder Notes: Looking For Early Access To Anything You Can Provide DVDScr, R5, DVDR, BluRay, Direct\nAudio, Music Releases and Seedboxes. If You Got anything to offer please contact us.\n\nSupport us by donating BC - 1FgwdzPsd1y25Gea8wP1qni35uGCtmkRCD","torrent":{"xt":"urn:btih:b570c31f440d7b2993bd58705c24399935f6d762","amp;dn":"Mr.Robot.S01E06.HDTV.480p.x264.AAC-VYTO+%5BP2PDL%5D","amp;tr":["udp%3A%2F%2Ftracker.openbittorrent.com%3A80","udp%3A%2F%2Fopen.demonii.com%3A1337","udp%3A%2F%2Ftracker.coppersurfer.tk%3A6969","udp%3A%2F%2Fexodus.desync.com%3A6969"],"infoHash":"b570c31f440d7b2993bd58705c24399935f6d762","infoHashBuffer":{"type":"Buffer","data":[181,112,195,31,68,13,123,41,147,189,88,112,92,36,57,153,53,246,215,98]},"announce":[],"urlList":[]}}